# xmcd
#
# Track frame offsets:
#	150
#	20215
#	32966
#	50624
#	65719
#	85110
#	101258
#	117880
#	132980
#	144922
#	159051
#	192986
#
# Disc length: 3731 seconds
#
# Revision: 1
# Processed by: cddbd v1.5.2PL0 Copyright (c) Steve Scherf et al.
# Submitted via: audiograbber 1.83.01
#
DISCID=a00e910c
DTITLE=311 - Evolver
DYEAR=2003
DGENRE=Rock
TTITLE0=Creatures (For A While)
TTITLE1=Reconsider Everything
TTITLE2=Crack The Code
TTITLE3=Same Mistake Twice
TTITLE4=Beyond The Gray Sky
TTITLE5=Seems Uncertain
TTITLE6=Still Dreaming
TTITLE7=Give Me A Call
TTITLE8=Don't Dwell
TTITLE9=Other Side Of Things
TTITLE10=Sometimes Jacks Rule The Realm
TTITLE11=Data Track
EXTD=
EXTT0=
EXTT1=
EXTT2=
EXTT3=
EXTT4=
EXTT5=
EXTT6=
EXTT7=
EXTT8=
EXTT9=
EXTT10=
EXTT11=
PLAYORDER=
